# Blender v2.79 (sub 0) OBJ File: 'ship-2-new.blend'
# www.blender.org
mtllib ship-2-new.mtl
o Cube_Cube.001
v 0.691452 0.218013 -0.177849
v 0.691452 -0.218013 -0.177849
v 0.378438 0.210179 -0.940224
v 0.378438 -0.210179 -0.940224
v 0.575194 -0.326721 -0.177849
v 0.575194 -0.275207 -0.514836
v 0.575194 0.326721 -0.177849
v 0.575194 0.275207 -0.514837
v 0.575194 -0.384120 -0.177849
v 0.314950 0.150749 -2.788509
v 0.575194 0.431410 -0.177849
v 0.314950 -0.150749 -2.788509
v 0.830404 -0.208793 -0.177849
v 0.454692 -0.072959 -2.788509
v 0.830404 0.208793 -0.177849
v 0.454692 0.072959 -2.788509
v 0.175133 0.276561 -0.177849
v 0.175134 -0.177912 -0.940224
v 0.095895 0.127605 -2.788509
v 0.175134 -0.356250 -0.177849
v 0.095895 -0.127605 -2.788509
v 0.175133 0.365178 -0.177849
v 0.175134 -0.276561 -0.177849
v 0.175133 0.177912 -0.940224
v 0.285420 -0.194127 -0.940224
v 0.156283 0.134233 -2.788509
v 0.285420 0.194127 -0.940224
v 0.285420 0.290924 -0.177849
v 0.285420 -0.361029 -0.177849
v 0.156283 -0.134233 -2.788509
v 0.285420 -0.290924 -0.177849
v 0.285420 0.384143 -0.177849
v 0.542537 0.222071 -2.788509
v 0.569388 0.204003 -2.788509
v 0.569388 -0.204003 -2.788509
v 0.542536 -0.222071 -2.788509
v 1.039873 0.583811 -0.177849
v 0.990834 0.635516 -0.177849
v 1.029456 -0.471036 -0.177849
v 1.046830 -0.402261 -0.177849
v 1.039874 0.494823 -0.935433
v 0.285420 0.325590 -0.935433
v 0.175133 0.309515 -0.935433
v 0.990834 0.538647 -0.935433
v 0.575194 -0.318362 -0.935433
v 0.285420 -0.302476 -0.935433
v 0.981943 -0.386619 -0.935433
v 0.830404 -0.176968 -0.935433
v 0.830404 0.176968 -0.935433
v 1.003183 -0.324712 -0.935433
v 0.575194 0.365652 -0.935433
v 0.175134 -0.300588 -0.935433
v 0.821812 0.242999 -1.610615
v 0.821811 -0.242999 -1.610615
v 0.225567 0.159892 -1.610615
v 0.138408 0.151998 -1.610615
v 0.225567 -0.159892 -1.610615
v 0.454575 -0.179565 -1.610615
v 0.783056 -0.264520 -1.610615
v 0.656268 -0.086906 -1.610615
v 0.656268 0.086906 -1.610615
v 0.783056 0.264520 -1.610615
v 0.454575 0.179565 -1.610615
v 0.138408 -0.151998 -1.610615
v 1.478036 0.907990 0.060610
v 1.428997 0.959695 0.060610
v 1.355630 0.809564 -0.440671
v 1.404670 0.765740 -0.440672
v 1.781479 -0.678828 0.022377
v 1.790759 -0.641914 0.022377
v 1.767447 -0.600494 -0.382265
v 1.756102 -0.633740 -0.382265
v 1.436892 -0.504340 -0.683614
v 1.474328 -0.570854 -0.086699
v 1.488017 -0.516583 -0.086699
v 1.453627 -0.455481 -0.683614
v -0.691452 0.218013 -0.177849
v -0.691452 -0.218013 -0.177849
v -0.378438 0.210179 -0.940224
v -0.378438 -0.210179 -0.940224
v 0.000000 0.354956 -0.177849
v -0.000000 0.124033 -2.788509
v 0.000000 -0.354956 -0.177849
v -0.000000 -0.124033 -2.788509
v 0.000000 0.268820 -0.177849
v 0.000000 -0.268820 -0.177849
v 0.000000 0.172932 -0.940224
v 0.000000 -0.172932 -0.940224
v -0.575194 -0.326721 -0.177849
v -0.575194 -0.275207 -0.514836
v -0.575194 0.326721 -0.177849
v -0.575194 0.275207 -0.514837
v -0.575194 -0.384120 -0.177849
v -0.314950 0.150749 -2.788509
v -0.575194 0.431410 -0.177849
v -0.314950 -0.150749 -2.788509
v -0.830404 -0.208793 -0.177849
v -0.454692 -0.072959 -2.788509
v -0.830404 0.208793 -0.177849
v -0.454692 0.072959 -2.788509
v -0.175133 0.276561 -0.177849
v -0.175134 -0.177912 -0.940224
v -0.095895 0.127605 -2.788509
v -0.175134 -0.356250 -0.177849
v -0.095895 -0.127605 -2.788509
v -0.175133 0.365178 -0.177849
v -0.175134 -0.276561 -0.177849
v -0.175133 0.177912 -0.940224
v -0.285420 -0.194127 -0.940224
v -0.156283 0.134233 -2.788509
v -0.285420 0.194127 -0.940224
v -0.285420 0.290924 -0.177849
v -0.285420 -0.361029 -0.177849
v -0.156283 -0.134233 -2.788509
v -0.285420 -0.290924 -0.177849
v -0.285420 0.384143 -0.177849
v -0.542537 0.222071 -2.788509
v -0.569388 0.204003 -2.788509
v -0.569388 -0.204003 -2.788509
v -0.542536 -0.222071 -2.788509
v -1.039873 0.583811 -0.177849
v -0.990834 0.635516 -0.177849
v -1.029456 -0.471036 -0.177849
v -1.046830 -0.402261 -0.177849
v -1.039874 0.494823 -0.935433
v -0.285420 0.325590 -0.935433
v -0.175133 0.309515 -0.935433
v -0.990834 0.538647 -0.935433
v -0.575194 -0.318362 -0.935433
v -0.285420 -0.302476 -0.935433
v -0.981943 -0.386619 -0.935433
v -0.830404 -0.176968 -0.935433
v 0.000000 -0.300851 -0.935433
v -0.830404 0.176968 -0.935433
v 0.000000 0.300851 -0.935433
v -1.003183 -0.324712 -0.935433
v -0.575194 0.365652 -0.935433
v -0.175134 -0.300588 -0.935433
v -0.821812 0.242999 -1.610615
v -0.821811 -0.242999 -1.610615
v -0.225567 0.159892 -1.610615
v -0.138408 0.151998 -1.610615
v -0.225567 -0.159892 -1.610615
v -0.454575 -0.179565 -1.610615
v -0.783056 -0.264520 -1.610615
v -0.656268 -0.086906 -1.610615
v -0.000000 -0.147743 -1.610615
v -0.656268 0.086906 -1.610615
v -0.000000 0.147743 -1.610615
v -0.783056 0.264520 -1.610615
v -0.454575 0.179565 -1.610615
v -0.138408 -0.151998 -1.610615
v -1.478036 0.907990 0.060610
v -1.428997 0.959695 0.060610
v -1.355630 0.809564 -0.440671
v -1.404670 0.765740 -0.440672
v -1.781479 -0.678828 0.022377
v -1.790759 -0.641914 0.022377
v -1.767447 -0.600494 -0.382265
v -1.756102 -0.633740 -0.382265
v -1.436892 -0.504340 -0.683614
v -1.474328 -0.570854 -0.086699
v -1.488017 -0.516583 -0.086699
v -1.453627 -0.455481 -0.683614
vn 0.0000 0.0000 -1.0000
vn 1.0000 -0.0000 0.0000
vn -0.0000 0.0000 1.0000
vn 0.0438 -0.9908 0.1282
vn -0.9453 0.0000 0.3261
vn -0.6788 0.7259 0.1110
vn 0.6496 0.7596 0.0319
vn 0.8716 -0.4868 0.0572
vn -0.6788 -0.7259 0.1110
vn -0.9076 0.0000 0.4198
vn -0.0791 -0.9931 -0.0862
vn 0.0923 0.9878 0.1254
vn -0.0856 0.9962 -0.0142
vn -0.1870 -0.9775 -0.0972
vn -0.4379 0.8918 -0.1140
vn 0.1281 -0.9839 0.1249
vn 0.0438 0.9908 0.1282
vn -0.0581 0.9956 -0.0732
vn -0.0372 -0.9991 -0.0201
vn -0.1091 -0.9939 -0.0166
vn 0.1281 0.9839 0.1249
vn 0.1696 -0.9829 0.0718
vn -0.1690 0.9827 -0.0760
vn 0.4954 0.5543 -0.6688
vn -0.3028 -0.9491 -0.0868
vn -0.1641 -0.9780 -0.1285
vn -0.0171 -0.9972 -0.0733
vn 0.4335 0.7806 -0.4503
vn 0.6839 0.7253 -0.0796
vn -0.2444 0.9451 -0.2168
vn 0.9683 0.0000 -0.2497
vn -0.0300 0.9748 -0.2211
vn 0.0015 -0.9975 -0.0712
vn -0.0880 0.9711 -0.2218
vn 0.9076 -0.3114 -0.2815
vn 0.8333 -0.5491 -0.0643
vn -0.0537 -0.9800 -0.1919
vn -0.1604 0.9834 -0.0854
vn -0.1329 0.9613 -0.2412
vn -0.0882 -0.9738 -0.2095
vn -0.2504 -0.9680 0.0162
vn 0.5526 0.8212 -0.1424
vn -0.2990 0.9542 0.0121
vn -0.0372 0.9991 -0.0201
vn -0.1091 0.9939 -0.0166
vn 0.6809 -0.7221 -0.1220
vn -0.0300 -0.9748 -0.2211
vn 0.7470 0.6538 -0.1201
vn 0.9857 0.0000 -0.1687
vn 0.4812 -0.8666 -0.1318
vn -0.0856 -0.9962 -0.0142
vn 0.6926 0.6569 -0.2981
vn -0.4917 0.8637 -0.1104
vn -0.2926 -0.2776 0.9151
vn 0.5299 -0.8331 0.1588
vn 0.9661 -0.2429 -0.0877
vn 0.3584 0.9306 0.0746
vn -0.3092 0.0780 0.9478
vn 0.6237 -0.2128 -0.7521
vn 0.4478 -0.1536 -0.8808
vn -0.1902 0.0480 0.9806
vn 0.2333 0.9686 0.0857
vn -0.1991 -0.9752 -0.0962
vn -1.0000 -0.0000 0.0000
vn -0.0282 -0.9918 0.1247
vn 0.9453 0.0000 0.3261
vn 0.6788 0.7259 0.1110
vn -0.6660 0.7450 0.0379
vn -0.8716 -0.4868 0.0572
vn 0.6788 -0.7259 0.1110
vn 0.9076 0.0000 0.4198
vn 0.0791 -0.9931 -0.0862
vn -0.0923 0.9878 0.1254
vn 0.1035 0.9945 -0.0156
vn 0.1870 -0.9775 -0.0972
vn 0.4379 0.8918 -0.1140
vn -0.1443 -0.9814 0.1270
vn -0.0438 0.9908 0.1282
vn 0.0581 0.9956 -0.0732
vn 0.0307 -0.9993 -0.0196
vn 0.0902 -0.9958 -0.0164
vn -0.1281 0.9839 0.1249
vn -0.1696 -0.9829 0.0718
vn 0.1690 0.9827 -0.0760
vn -0.4954 0.5543 -0.6688
vn 0.3028 -0.9491 -0.0868
vn 0.1641 -0.9780 -0.1285
vn 0.0171 -0.9972 -0.0733
vn -0.5976 0.6687 -0.4424
vn -0.6477 0.7574 -0.0823
vn 0.3722 0.8943 -0.2485
vn -0.9683 -0.0000 -0.2497
vn 0.0481 0.9733 -0.2244
vn -0.0015 -0.9975 -0.0712
vn 0.1406 0.9644 -0.2242
vn -0.9076 -0.3114 -0.2815
vn -0.8333 -0.5491 -0.0643
vn 0.0537 -0.9800 -0.1919
vn 0.1366 0.9877 -0.0763
vn 0.0833 0.9695 -0.2305
vn 0.0882 -0.9738 -0.2095
vn 0.2504 -0.9680 0.0162
vn -0.4812 0.8666 -0.1318
vn 0.2504 0.9680 0.0162
vn 0.0307 0.9993 -0.0196
vn 0.0902 0.9958 -0.0164
vn -0.6809 -0.7221 -0.1220
vn 0.0300 -0.9748 -0.2211
vn -0.6809 0.7221 -0.1220
vn -0.9857 -0.0000 -0.1687
vn -0.4812 -0.8666 -0.1318
vn 0.0856 -0.9962 -0.0142
vn -0.6366 0.7124 -0.2953
vn 0.4917 0.8637 -0.1104
vn 0.2926 -0.2776 0.9151
vn -0.5013 -0.8594 0.1009
vn -0.9661 -0.2429 -0.0877
vn -0.3584 0.9306 0.0746
vn 0.3092 0.0780 0.9478
vn -0.6235 -0.2136 -0.7521
vn -0.4478 -0.1536 -0.8808
vn 0.1901 0.0480 0.9806
vn -0.2333 0.9686 0.0857
vn 0.1991 -0.9752 -0.0962
vn 0.0282 -0.9918 0.1247
vn 0.6660 0.7450 0.0379
vn 0.8348 -0.5501 0.0231
vn -0.0546 -0.9955 -0.0769
vn 0.1212 0.9812 0.1500
vn 0.1696 0.9829 0.0718
vn -0.1035 0.9945 -0.0156
vn -0.1649 -0.9826 -0.0853
vn -0.3830 0.9203 -0.0799
vn 0.1443 -0.9814 0.1270
vn 0.0282 0.9918 0.1247
vn -0.0493 0.9962 -0.0711
vn -0.0307 -0.9993 -0.0196
vn -0.0902 -0.9958 -0.0164
vn 0.1443 0.9814 0.1270
vn 0.1212 -0.9812 0.1500
vn 0.0923 -0.9878 0.1254
vn -0.1438 0.9869 -0.0725
vn -0.2475 -0.9568 -0.1525
vn -0.0432 -0.9961 -0.0770
vn 0.5976 0.6687 -0.4424
vn 0.6477 0.7574 -0.0823
vn -0.3722 0.8943 -0.2485
vn -0.0481 0.9733 -0.2244
vn -0.0074 -0.9973 -0.0733
vn -0.1406 0.9644 -0.2242
vn 0.4649 -0.8371 -0.2883
vn 0.6839 -0.7253 -0.0796
vn -0.0839 -0.9764 -0.1988
vn -0.1366 0.9877 -0.0763
vn -0.0833 0.9695 -0.2305
vn -0.0168 -0.9786 -0.2052
vn -0.2990 -0.9542 0.0121
vn 0.4812 0.8666 -0.1318
vn -0.2504 0.9680 0.0162
vn -0.0307 0.9993 -0.0196
vn -0.0902 0.9958 -0.0164
vn 0.7470 -0.6538 -0.1201
vn 0.0015 -0.9766 -0.2150
vn 0.6809 0.7221 -0.1220
vn 0.5526 -0.8212 -0.1424
vn -0.1035 -0.9945 -0.0156
vn 0.6366 0.7124 -0.2953
vn -0.5230 0.8345 -0.1734
vn 0.5013 -0.8594 0.1009
vn 0.9428 -0.3217 -0.0873
vn -0.3093 0.0777 0.9478
vn 0.6235 -0.2136 -0.7521
vn 0.4479 -0.1534 -0.8808
vn -0.1901 0.0480 0.9806
vn -0.0438 -0.9908 0.1282
vn -0.6496 0.7596 0.0319
vn -0.8348 -0.5501 0.0231
vn 0.0546 -0.9955 -0.0769
vn -0.1696 0.9829 0.0718
vn -0.1212 0.9812 0.1500
vn 0.0856 0.9962 -0.0142
vn 0.1649 -0.9826 -0.0853
vn 0.3830 0.9203 -0.0799
vn -0.1281 -0.9839 0.1249
vn -0.0282 0.9918 0.1247
vn 0.0493 0.9962 -0.0711
vn 0.0372 -0.9991 -0.0201
vn 0.1091 -0.9939 -0.0166
vn -0.1443 0.9814 0.1270
vn -0.0923 -0.9878 0.1254
vn -0.1212 -0.9812 0.1500
vn 0.1438 0.9869 -0.0725
vn 0.2475 -0.9568 -0.1525
vn 0.0432 -0.9961 -0.0770
vn -0.4335 0.7806 -0.4503
vn -0.6839 0.7253 -0.0796
vn 0.2444 0.9451 -0.2168
vn 0.0300 0.9748 -0.2211
vn 0.0074 -0.9973 -0.0733
vn 0.0880 0.9711 -0.2218
vn -0.4649 -0.8371 -0.2883
vn -0.6839 -0.7253 -0.0796
vn 0.0839 -0.9764 -0.1988
vn 0.1604 0.9834 -0.0854
vn 0.1329 0.9613 -0.2412
vn 0.0168 -0.9786 -0.2052
vn 0.2990 -0.9542 0.0121
vn -0.5526 0.8212 -0.1424
vn 0.2990 0.9542 0.0121
vn 0.0372 0.9991 -0.0201
vn 0.1091 0.9939 -0.0166
vn -0.7470 -0.6538 -0.1201
vn -0.0015 -0.9766 -0.2150
vn -0.7470 0.6538 -0.1201
vn -0.5526 -0.8212 -0.1424
vn 0.1035 -0.9945 -0.0156
vn -0.6926 0.6569 -0.2981
vn 0.5230 0.8345 -0.1734
vn -0.5299 -0.8331 0.1588
vn -0.9428 -0.3217 -0.0873
vn 0.3093 0.0777 0.9478
vn -0.6237 -0.2128 -0.7521
vn -0.4479 -0.1534 -0.8808
vn 0.1902 0.0480 0.9806
usemtl Material
s off
f 19//1 84//1 82//1
f 15//2 48//2 49//2
f 83//3 23//3 86//3
f 85//4 24//4 17//4
f 1//5 6//5 2//5
f 2//6 6//6 5//6
f 27//3 4//3 3//3
f 13//7 50//7 48//7
f 15//8 41//8 37//8
f 8//9 1//9 7//9
f 32//3 7//3 11//3
f 8//10 4//10 6//10
f 29//11 45//11 9//11
f 31//12 6//12 25//12
f 10//13 55//13 63//13
f 10//1 14//1 12//1
f 14//1 36//1 12//1
f 13//3 1//3 2//3
f 9//14 47//14 39//14
f 44//15 11//15 38//15
f 17//16 27//16 28//16
f 18//17 86//17 23//17
f 17//3 81//3 85//3
f 43//18 81//18 22//18
f 20//3 31//3 23//3
f 19//1 30//1 21//1
f 24//3 88//3 18//3
f 21//19 147//19 84//19
f 30//20 64//20 21//20
f 25//21 23//21 31//21
f 28//3 22//3 17//3
f 27//22 3//22 8//22
f 29//3 5//3 31//3
f 42//23 22//23 32//23
f 27//3 18//3 25//3
f 30//1 10//1 12//1
f 38//3 11//3 15//3
f 13//3 2//3 9//3
f 41//24 67//24 68//24
f 74//25 72//25 69//25
f 16//1 33//1 34//1
f 45//26 59//26 47//26
f 46//27 20//27 52//27
f 44//28 53//28 62//28
f 48//29 54//29 60//29
f 51//30 62//30 63//30
f 48//31 61//31 49//31
f 135//32 56//32 149//32
f 52//33 83//33 133//33
f 43//34 55//34 56//34
f 47//35 54//35 50//35
f 49//36 53//36 41//36
f 46//37 58//37 45//37
f 51//38 32//38 11//38
f 63//39 42//39 51//39
f 57//40 52//40 64//40
f 58//41 36//41 59//41
f 62//42 34//42 33//42
f 63//43 33//43 10//43
f 149//44 19//44 82//44
f 56//45 26//45 19//45
f 61//46 34//46 53//46
f 64//47 133//47 147//47
f 60//48 35//48 14//48
f 60//49 16//49 61//49
f 59//50 35//50 54//50
f 57//51 12//51 58//51
f 65//52 67//52 66//52
f 38//53 67//53 44//53
f 37//54 66//54 38//54
f 37//55 68//55 65//55
f 72//56 70//56 69//56
f 75//57 71//57 76//57
f 74//58 70//58 75//58
f 73//59 71//59 72//59
f 50//60 73//60 47//60
f 40//61 74//61 75//61
f 40//62 76//62 50//62
f 39//63 73//63 74//63
f 84//1 103//1 82//1
f 99//64 132//64 97//64
f 107//3 83//3 86//3
f 85//65 108//65 87//65
f 77//66 90//66 92//66
f 78//67 89//67 90//67
f 80//3 111//3 79//3
f 97//68 136//68 124//68
f 125//69 99//69 121//69
f 92//70 91//70 77//70
f 91//3 116//3 95//3
f 92//71 80//71 79//71
f 129//72 113//72 93//72
f 109//73 90//73 115//73
f 94//74 141//74 110//74
f 94//1 98//1 100//1
f 120//1 98//1 96//1
f 97//3 77//3 99//3
f 131//75 93//75 123//75
f 95//76 128//76 122//76
f 101//77 111//77 108//77
f 86//78 102//78 107//78
f 101//3 81//3 106//3
f 81//79 127//79 106//79
f 115//3 104//3 107//3
f 114//1 103//1 105//1
f 88//3 108//3 102//3
f 105//80 147//80 152//80
f 114//81 152//81 143//81
f 107//82 109//82 115//82
f 112//3 106//3 116//3
f 92//83 79//83 111//83
f 89//3 113//3 115//3
f 106//84 126//84 116//84
f 102//3 111//3 109//3
f 114//1 94//1 110//1
f 122//3 121//3 99//3
f 97//3 124//3 123//3
f 125//85 155//85 128//85
f 162//86 160//86 161//86
f 100//1 117//1 94//1
f 145//87 129//87 131//87
f 104//88 130//88 138//88
f 128//89 139//89 125//89
f 132//90 140//90 136//90
f 137//91 150//91 128//91
f 148//92 132//92 134//92
f 135//93 142//93 127//93
f 83//94 138//94 133//94
f 127//95 141//95 126//95
f 140//96 131//96 136//96
f 139//97 134//97 125//97
f 144//98 130//98 129//98
f 137//99 116//99 126//99
f 151//100 126//100 141//100
f 138//101 143//101 152//101
f 120//102 144//102 145//102
f 150//103 118//103 139//103
f 151//104 117//104 150//104
f 149//105 103//105 142//105
f 142//106 110//106 141//106
f 118//107 148//107 139//107
f 133//108 152//108 147//108
f 146//109 119//109 140//109
f 100//110 146//110 148//110
f 119//111 145//111 140//111
f 96//112 143//112 144//112
f 153//113 155//113 156//113
f 155//114 122//114 128//114
f 154//115 121//115 122//115
f 121//116 156//116 125//116
f 158//117 160//117 157//117
f 159//118 163//118 164//118
f 158//119 162//119 163//119
f 161//120 159//120 164//120
f 161//121 136//121 131//121
f 124//122 162//122 123//122
f 164//123 124//123 136//123
f 123//124 161//124 131//124
f 19//1 21//1 84//1
f 15//2 13//2 48//2
f 83//3 20//3 23//3
f 85//125 87//125 24//125
f 1//5 8//5 6//5
f 27//3 25//3 4//3
f 13//126 40//126 50//126
f 15//127 49//127 41//127
f 32//3 28//3 7//3
f 8//10 3//10 4//10
f 29//128 46//128 45//128
f 5//129 6//129 31//129
f 6//130 4//130 25//130
f 10//131 26//131 55//131
f 10//1 16//1 14//1
f 14//1 35//1 36//1
f 13//3 15//3 1//3
f 9//132 45//132 47//132
f 44//133 51//133 11//133
f 17//134 24//134 27//134
f 18//135 88//135 86//135
f 17//3 22//3 81//3
f 43//136 135//136 81//136
f 20//3 29//3 31//3
f 19//1 26//1 30//1
f 24//3 87//3 88//3
f 21//137 64//137 147//137
f 30//138 57//138 64//138
f 25//139 18//139 23//139
f 28//3 32//3 22//3
f 7//140 28//140 8//140
f 28//141 27//141 8//141
f 29//3 9//3 5//3
f 42//142 43//142 22//142
f 27//3 24//3 18//3
f 30//1 26//1 10//1
f 7//3 1//3 11//3
f 1//3 15//3 11//3
f 15//3 37//3 38//3
f 5//3 9//3 2//3
f 9//3 39//3 13//3
f 39//3 40//3 13//3
f 41//24 44//24 67//24
f 74//25 73//25 72//25
f 16//1 10//1 33//1
f 45//143 58//143 59//143
f 46//144 29//144 20//144
f 44//145 41//145 53//145
f 48//146 50//146 54//146
f 51//147 44//147 62//147
f 48//31 60//31 61//31
f 135//148 43//148 56//148
f 52//149 20//149 83//149
f 43//150 42//150 55//150
f 47//151 59//151 54//151
f 49//152 61//152 53//152
f 46//153 57//153 58//153
f 51//154 42//154 32//154
f 63//155 55//155 42//155
f 57//156 46//156 52//156
f 58//157 12//157 36//157
f 62//158 53//158 34//158
f 63//159 62//159 33//159
f 149//160 56//160 19//160
f 56//161 55//161 26//161
f 61//162 16//162 34//162
f 64//163 52//163 133//163
f 60//164 54//164 35//164
f 60//49 14//49 16//49
f 59//165 36//165 35//165
f 57//166 30//166 12//166
f 65//167 68//167 67//167
f 38//168 66//168 67//168
f 37//54 65//54 66//54
f 37//169 41//169 68//169
f 72//170 71//170 70//170
f 75//57 70//57 71//57
f 74//171 69//171 70//171
f 73//172 76//172 71//172
f 50//173 76//173 73//173
f 40//174 39//174 74//174
f 40//62 75//62 76//62
f 39//63 47//63 73//63
f 84//1 105//1 103//1
f 99//64 134//64 132//64
f 107//3 104//3 83//3
f 85//175 101//175 108//175
f 77//66 78//66 90//66
f 80//3 109//3 111//3
f 97//176 132//176 136//176
f 125//177 134//177 99//177
f 91//3 112//3 116//3
f 92//71 90//71 80//71
f 129//178 130//178 113//178
f 80//179 90//179 109//179
f 90//180 89//180 115//180
f 94//181 151//181 141//181
f 94//1 96//1 98//1
f 120//1 119//1 98//1
f 97//3 78//3 77//3
f 131//182 129//182 93//182
f 95//183 137//183 128//183
f 101//184 112//184 111//184
f 86//185 88//185 102//185
f 101//3 85//3 81//3
f 81//186 135//186 127//186
f 115//3 113//3 104//3
f 114//1 110//1 103//1
f 88//3 87//3 108//3
f 105//187 84//187 147//187
f 114//188 105//188 152//188
f 107//189 102//189 109//189
f 112//3 101//3 106//3
f 111//190 112//190 92//190
f 112//191 91//191 92//191
f 89//3 93//3 113//3
f 106//192 127//192 126//192
f 102//3 108//3 111//3
f 114//1 96//1 94//1
f 99//3 77//3 95//3
f 77//3 91//3 95//3
f 95//3 122//3 99//3
f 123//3 93//3 97//3
f 93//3 89//3 78//3
f 97//3 93//3 78//3
f 125//85 156//85 155//85
f 162//86 157//86 160//86
f 100//1 118//1 117//1
f 145//193 144//193 129//193
f 104//194 113//194 130//194
f 128//195 150//195 139//195
f 132//196 146//196 140//196
f 137//197 151//197 150//197
f 148//92 146//92 132//92
f 135//198 149//198 142//198
f 83//199 104//199 138//199
f 127//200 142//200 141//200
f 140//201 145//201 131//201
f 139//202 148//202 134//202
f 144//203 143//203 130//203
f 137//204 95//204 116//204
f 151//205 137//205 126//205
f 138//206 130//206 143//206
f 120//207 96//207 144//207
f 150//208 117//208 118//208
f 151//209 94//209 117//209
f 149//210 82//210 103//210
f 142//211 103//211 110//211
f 118//212 100//212 148//212
f 133//213 138//213 152//213
f 146//214 98//214 119//214
f 100//110 98//110 146//110
f 119//215 120//215 145//215
f 96//216 114//216 143//216
f 153//217 154//217 155//217
f 155//218 154//218 122//218
f 154//115 153//115 121//115
f 121//219 153//219 156//219
f 158//220 159//220 160//220
f 159//118 158//118 163//118
f 158//221 157//221 162//221
f 161//222 160//222 159//222
f 161//223 164//223 136//223
f 124//224 163//224 162//224
f 164//123 163//123 124//123
f 123//124 162//124 161//124
